<?xml version="1.0" encoding="utf-8"?>
<!-- Generator: Adobe Illustrator 19.2.0, SVG Export Plug-In . SVG Version: 6.00 Build 0)  -->
<svg version="1.1" xmlns="http://www.w3.org/2000/svg" xmlns:xlink="http://www.w3.org/1999/xlink" x="0px" y="0px"
	 viewBox="0 0 2048 1536" style="enable-background:new 0 0 2048 1536;" xml:space="preserve">
<style type="text/css">
	.st0{display:none;}
	.st1{display:inline;fill:#A2FFEB;}
	.st2{display:inline;opacity:0.5;fill:#D2FFBC;}
	.st3{display:inline;}
	.st4{fill:#FFD000;}
	.st5{fill:#FFFFFF;}
	.st6{fill:#333333;}
	.st7{display:inline;fill:#FFFFFF;}
	.st8{fill:#E20094;}
	.st9{fill:#FFA2EF;}
	.st10{fill:#F477BC;}
	.st11{fill:#FF70FF;}
	.st12{fill:#B3B3B3;}
	.st13{fill:#FFB9D2;}
	.st14{fill:#2E1400;}
	.st15{fill:none;stroke:#2E1400;stroke-width:2;stroke-linecap:round;stroke-linejoin:round;stroke-miterlimit:10;}
	.st16{fill:#C1003F;}
	.st17{fill:#4D4D4D;}
	.st18{fill:#CCCCCC;}
	.st19{fill:#E6E6E6;}
	.st20{fill:#808080;}
	.st21{fill:#666666;}
	.st22{fill:#CACAC3;}
	.st23{fill:#F2F2F2;}
	.st24{fill:#F4717C;}
	.st25{fill:#F47F8A;}
	.st26{fill:#FFA2AC;}
	.st27{fill:#F47685;}
	.st28{fill:#F43F55;}
	.st29{fill:#F45050;}
	.st30{fill:#E48BFF;}
	.st31{fill:#CB00FF;}
	.st32{fill:#93278F;}
	.st33{fill:#D09700;}
	.st34{fill:#FFE5A2;}
	.st35{fill:#403838;}
	.st36{fill:#00FFFF;}
	.st37{fill:#010103;}
	.st38{fill:#FFAE00;}
	.st39{fill:#D1F8E3;}
	.st40{fill:#1A1A1A;}
	.st41{fill:#42210B;}
	.st42{fill:#25110B;}
	.st43{opacity:0.25;fill:#FFFFFF;}
	.st44{opacity:0.35;fill:#D1F8E3;}
</style>
<g id="Layer_2" class="st0">
	<polygon class="st1" points="-8,1109.4 -8,-15 2128,-15 2128,1219.9 1230.4,871.1 	"/>
	<polygon class="st2" points="-30.4,1108.1 1222.2,855.6 2185,1233.5 2185,1565 -38,1565 	"/>
</g>
<g id="kitty" class="st0">
	<g class="st3">
		<g>
			<path d="M743.5,912.9c-1.9-5-2.9-10.7-2.9-16.7c0-7.5,1.7-14.4-2.2-20.4c0.7-0.8,0.9-1.8,0.7-2.9l0-22.2
				c-0.5-1.7-2.2-2.7-3.9-2.2l-23.2,9c-0.3,0.1-0.5,0.2-0.8,0.3c-3.2-0.7-6.5-1.1-9.9-1.1c-3.6,0-7.1,0.4-10.5,1.2
				c-0.3-0.2-0.6-0.4-1-0.5l-23.2-10c-1.7-0.5-3.4,0.5-3.9,2.2l0,23.2c-0.3,1.3,0.1,2.6,1.1,3.3c-1.1,1.7-4.9,16.8-4.9,19.9
				c0,2-0.8,4-0.5,6c0-0.1-17.2,11.9-18.8,13.4c-5.9,5.8-10.9,12.6-14.6,20c-3.8,7.6-6.2,15.9-7.2,24.4c-1.1,9.5-3.2,19.1-4,28.6
				c-0.4,5.3-0.3,9.3-2.6,14.1c-2.8,5.7-4.5,10.5-4.1,17.1c0.6,10.2,5.3,20.6,13,27.4c8.2,7.3,18.8,10.5,29.2,13.3
				c9.5,2.6,18,4.4,24.1,12c3.6,4.5,11.1,3.7,14.8,0c4.4-4.4-0.4-10.4-4-14.8c-11.7-14.4-26.9-15.3-43-21.6
				c-6.3-2.5-11-7.4-12.6-12.7c-0.9-2.8-1-2.5-0.7-4.5c10.1,15.8,29,23.7,63.5,23.7c74.1,0,74.1-33.2,74.1-74.1
				C765.7,946.3,758.9,926.4,743.5,912.9z"/>
		</g>
		<g>
			<circle class="st4" cx="686.4" cy="881.4" r="11.4"/>
			<path d="M686.4,893.3c-6.6,0-11.9-5.3-11.9-11.9c0-6.6,5.3-11.9,11.9-11.9c6.6,0,11.9,5.3,11.9,11.9
				C698.3,888,693,893.3,686.4,893.3z M686.4,870.5c-6,0-10.9,4.9-10.9,10.9s4.9,10.9,10.9,10.9c6,0,10.9-4.9,10.9-10.9
				S692.4,870.5,686.4,870.5z"/>
		</g>
		<g>
			<circle cx="686.2" cy="879.9" r="7.8"/>
		</g>
		<g>
			<circle class="st4" cx="716.4" cy="881.4" r="11.4"/>
			<path d="M716.4,893.3c-6.6,0-11.9-5.3-11.9-11.9c0-6.6,5.3-11.9,11.9-11.9c6.6,0,11.9,5.3,11.9,11.9
				C728.3,888,723,893.3,716.4,893.3z M716.4,870.5c-6,0-10.9,4.9-10.9,10.9s4.9,10.9,10.9,10.9c6,0,10.9-4.9,10.9-10.9
				S722.4,870.5,716.4,870.5z"/>
		</g>
		<g>
			<circle cx="716.2" cy="879.9" r="7.8"/>
		</g>
		<g>
			<path class="st5" d="M687.7,878.5c0.3-0.3,0.5-0.5,0.5-0.5s-0.1-0.2-0.4-0.4l0.7-2.6l-1.4,2c-1.1-0.8-2.7-1.8-4.6-1.8
				c-3.2,0-5.8,2.8-5.8,2.8s2.6,2.8,5.8,2.8c1.8,0,3.3-0.9,4.4-1.6l1.6,2.3L687.7,878.5z"/>
		</g>
		<g>
			<path class="st5" d="M718.7,878.5c0.3-0.3,0.5-0.5,0.5-0.5s-0.1-0.2-0.4-0.4l0.7-2.6l-1.4,2c-1.1-0.8-2.7-1.8-4.6-1.8
				c-3.2,0-5.8,2.8-5.8,2.8s2.6,2.8,5.8,2.8c1.8,0,3.3-0.9,4.4-1.6l1.6,2.3L718.7,878.5z"/>
		</g>
		<g>
			<path class="st6" d="M704,899l-3.8,1H700l-4-1c-1.1,0-2,0.9-2,2c0,1.1,0.9,2,2,2h2v1.2c0,1,0.8,1.8,1.8,1.8h0.5
				c1,0,1.8-0.8,1.8-1.8V903h2c1.1,0,2-0.9,2-2C706,899.9,705.1,899,704,899z"/>
		</g>
		<g>
			<path class="st5" d="M646,915.8c-0.1,0-0.3-0.1-0.4-0.2c-0.2-0.2-0.2-0.5,0-0.7c16.6-14.8,45.7-12.8,45.9-12.8
				c0.3,0,0.5,0.3,0.5,0.5s-0.3,0.5-0.5,0.5c-0.3,0-28.9-2-45.2,12.5C646.2,915.8,646.1,915.8,646,915.8z"/>
		</g>
		<g>
			<path class="st5" d="M663,929.8C663,929.8,663,929.8,663,929.8c-0.3,0-0.5-0.3-0.5-0.5c2-25.5,25.8-24.5,26-24.5
				c0.3,0,0.5,0.3,0.5,0.5s-0.3,0.5-0.5,0.5c-0.9-0.1-23-1-25,23.5C663.5,929.6,663.3,929.8,663,929.8z"/>
		</g>
		<g>
			<path class="st5" d="M753.6,915.8c-0.1,0-0.2,0-0.3-0.1c-16.3-14.5-44.9-12.6-45.2-12.5c-0.3,0-0.5-0.2-0.5-0.5
				c0-0.3,0.2-0.5,0.5-0.5c0.3,0,29.3-2,45.9,12.8c0.2,0.2,0.2,0.5,0,0.7C753.9,915.8,753.7,915.8,753.6,915.8z"/>
		</g>
		<g>
			<path class="st5" d="M735,929.8c-0.3,0-0.5-0.2-0.5-0.5c-0.8-10.3-5.3-17.4-13.2-21.1c-5.9-2.8-11.7-2.5-11.8-2.5
				c-0.3,0-0.5-0.2-0.5-0.5s0.2-0.5,0.5-0.5c0.2,0,24-1.1,26,24.5C735.5,929.6,735.3,929.8,735,929.8C735,929.8,735,929.8,735,929.8
				z"/>
		</g>
		<g>
			<path d="M722,1041.8c0,2.9-2.4,5.2-5.2,5.2h-5.5c-2.9,0-5.2-2.4-5.2-5.2v-0.5c0-2.9,2.4-5.2,5.2-5.2h5.5c2.9,0,5.2,2.4,5.2,5.2
				V1041.8z"/>
		</g>
		<g>
			<path d="M692,1042.8c0,2.9-2.4,5.2-5.2,5.2h-5.5c-2.9,0-5.2-2.4-5.2-5.2v-0.5c0-2.9,2.4-5.2,5.2-5.2h5.5c2.9,0,5.2,2.4,5.2,5.2
				V1042.8z"/>
		</g>
	</g>
	<ellipse class="st7" cx="1253.3" cy="912.9" rx="3.1" ry="1.6"/>
	<ellipse class="st7" cx="1297.3" cy="926.9" rx="3.1" ry="1.6"/>
</g>
<g id="brush">
	<g>
		<g>
			<path class="st8" d="M860.7,941.8l-7.6-8.6c-1.8-4.6-4.6-13.6-8.4-12.1l-1,0.4c-3.9,1.5,0.2,11.1,2,15.7l-0.2,9.7
				c-2,3.1-2.6,7.1-1.2,10.9l9.7,25.2c2.4,6.2,9.3,9.3,15.5,6.9l0.9-0.4c6.2-2.4,9.3-9.3,6.9-15.5l-9.7-25.2
				C866.3,945.4,863.7,942.9,860.7,941.8z"/>
			<path class="st9" d="M886.9,901.5c2.8,7.2-0.8,15.3-8,18.1l-61.6,23.8c-7.2,2.8-15.3-0.8-18.1-8l-6.5-16.8
				c-2.8-7.2,0.8-15.3,8-18.1l61.6-23.8c7.2-2.8,15.3,0.8,18.1,8L886.9,901.5z"/>
			<path class="st10" d="M884.7,901.3c2.4,6.2-0.7,13.1-6.9,15.5l-61.6,23.8c-6.2,2.4-13.1-0.7-15.5-6.9l-6.5-16.8
				c-2.4-6.2,0.7-13.1,6.9-15.5l61.6-23.8c6.2-2.4,13.1,0.7,15.5,6.9L884.7,901.3z"/>
			
				<rect x="803" y="893.4" transform="matrix(0.9328 -0.3605 0.3605 0.9328 -270.9073 363.266)" class="st5" width="71" height="29"/>
			<path class="st11" d="M861,940c0.3,0.8-0.1,1.6-0.9,1.9l-14,5.4c-0.8,0.3-1.6-0.1-1.9-0.9l0,0c-0.3-0.8,0.1-1.6,0.9-1.9l14-5.4
				C859.8,938.8,860.7,939.2,861,940L861,940z"/>
			<g>
				<g>
					<polygon class="st12" points="804.1,912.1 800.6,901.6 805.1,911.7 					"/>
				</g>
				<g>
					<polygon class="st12" points="806.9,911 803.4,900.6 807.9,910.6 					"/>
				</g>
				<g>
					<polygon class="st12" points="805.7,919 802.2,908.5 806.7,918.6 					"/>
				</g>
				<g>
					<polygon class="st12" points="808.5,917.9 805,907.4 809.5,917.5 					"/>
				</g>
				<g>
					<polygon class="st12" points="810.7,909.6 807.2,899.1 811.6,909.2 					"/>
				</g>
				<g>
					<polygon class="st12" points="813.5,908.5 810,898 814.4,908.1 					"/>
				</g>
				<g>
					<polygon class="st12" points="812.3,916.4 808.8,906 813.2,916.1 					"/>
				</g>
				<g>
					<polygon class="st12" points="815.1,915.4 811.6,904.9 816,915 					"/>
				</g>
				<g>
					<polygon class="st12" points="816.3,907.4 812.8,897 817.2,907 					"/>
				</g>
				<g>
					<polygon class="st12" points="819.1,906.3 815.6,895.9 820,906 					"/>
				</g>
				<g>
					<polygon class="st12" points="817.9,914.3 814.4,903.8 818.8,913.9 					"/>
				</g>
				<g>
					<polygon class="st12" points="820.7,913.2 817.2,902.8 821.6,912.8 					"/>
				</g>
			</g>
			<g>
				<g>
					<polygon class="st12" points="822.8,904.9 819.3,894.4 823.7,904.5 					"/>
				</g>
				<g>
					<polygon class="st12" points="825.6,903.8 822.1,893.3 826.5,903.4 					"/>
				</g>
				<g>
					<polygon class="st12" points="824.4,911.8 820.9,901.3 825.3,911.4 					"/>
				</g>
				<g>
					<polygon class="st12" points="827.2,910.7 823.7,900.2 828.1,910.3 					"/>
				</g>
				<g>
					<polygon class="st12" points="829.3,902.3 825.8,891.9 830.3,902 					"/>
				</g>
				<g>
					<polygon class="st12" points="832.1,901.3 828.6,890.8 833.1,900.9 					"/>
				</g>
				<g>
					<polygon class="st12" points="830.9,909.2 827.4,898.8 831.9,908.9 					"/>
				</g>
				<g>
					<polygon class="st12" points="833.7,908.2 830.2,897.7 834.7,907.8 					"/>
				</g>
				<g>
					<polygon class="st12" points="834.9,900.2 831.4,889.7 835.9,899.8 					"/>
				</g>
				<g>
					<polygon class="st12" points="837.7,899.1 834.2,888.7 838.7,898.7 					"/>
				</g>
				<g>
					<polygon class="st12" points="836.5,907.1 833,896.6 837.5,906.7 					"/>
				</g>
				<g>
					<polygon class="st12" points="839.3,906 835.8,895.6 840.2,905.6 					"/>
				</g>
			</g>
			<g>
				<g>
					<polygon class="st12" points="841.5,897.7 838,887.2 842.4,897.3 					"/>
				</g>
				<g>
					<polygon class="st12" points="844.3,896.6 840.8,886.1 845.2,896.2 					"/>
				</g>
				<g>
					<polygon class="st12" points="843,904.6 839.5,894.1 844,904.2 					"/>
				</g>
				<g>
					<polygon class="st12" points="845.8,903.5 842.3,893 846.8,903.1 					"/>
				</g>
				<g>
					<polygon class="st12" points="848,895.1 844.5,884.7 848.9,894.8 					"/>
				</g>
				<g>
					<polygon class="st12" points="850.8,894.1 847.3,883.6 851.7,893.7 					"/>
				</g>
				<g>
					<polygon class="st12" points="849.6,902 846.1,891.6 850.5,901.7 					"/>
				</g>
				<g>
					<polygon class="st12" points="852.4,900.9 848.9,890.5 853.3,900.6 					"/>
				</g>
				<g>
					<polygon class="st12" points="853.6,893 850.1,882.5 854.5,892.6 					"/>
				</g>
				<g>
					<polygon class="st12" points="856.4,891.9 852.9,881.5 857.3,891.5 					"/>
				</g>
				<g>
					<polygon class="st12" points="855.2,899.9 851.7,889.4 856.1,899.5 					"/>
				</g>
				<g>
					<polygon class="st12" points="858,898.8 854.5,888.3 858.9,898.4 					"/>
				</g>
			</g>
			<g>
				<g>
					<polygon class="st12" points="809.2,925.1 805.7,914.7 810.1,924.8 					"/>
				</g>
				<g>
					<polygon class="st12" points="812,924.1 808.5,913.6 812.9,923.7 					"/>
				</g>
				<g>
					<polygon class="st12" points="810.8,932 807.3,921.6 811.7,931.7 					"/>
				</g>
				<g>
					<polygon class="st12" points="813.6,930.9 810.1,920.5 814.5,930.6 					"/>
				</g>
				<g>
					<polygon class="st12" points="815.7,922.6 812.2,912.2 816.7,922.3 					"/>
				</g>
				<g>
					<polygon class="st12" points="818.5,921.5 815,911.1 819.5,921.2 					"/>
				</g>
				<g>
					<polygon class="st12" points="817.3,929.5 813.8,919.1 818.2,929.1 					"/>
				</g>
				<g>
					<polygon class="st12" points="820.1,928.4 816.6,918 821,928.1 					"/>
				</g>
				<g>
					<polygon class="st12" points="821.3,920.5 817.8,910 822.3,920.1 					"/>
				</g>
				<g>
					<polygon class="st12" points="824.1,919.4 820.6,908.9 825,919 					"/>
				</g>
				<g>
					<polygon class="st12" points="822.9,927.3 819.4,916.9 823.8,927 					"/>
				</g>
				<g>
					<polygon class="st12" points="825.7,926.3 822.2,915.8 826.6,925.9 					"/>
				</g>
			</g>
			<g>
				<g>
					<polygon class="st12" points="827.8,917.9 824.3,907.5 828.8,917.6 					"/>
				</g>
				<g>
					<polygon class="st12" points="830.6,916.8 827.1,906.4 831.6,916.5 					"/>
				</g>
				<g>
					<polygon class="st12" points="829.4,924.8 825.9,914.4 830.4,924.5 					"/>
				</g>
				<g>
					<polygon class="st12" points="832.2,923.7 828.7,913.3 833.2,923.4 					"/>
				</g>
				<g>
					<polygon class="st12" points="834.4,915.4 830.9,905 835.3,915 					"/>
				</g>
				<g>
					<polygon class="st12" points="837.2,914.3 833.7,903.9 838.1,914 					"/>
				</g>
				<g>
					<polygon class="st12" points="836,922.3 832.5,911.9 836.9,921.9 					"/>
				</g>
				<g>
					<polygon class="st12" points="838.8,921.2 835.3,910.8 839.7,920.9 					"/>
				</g>
				<g>
					<polygon class="st12" points="840,913.2 836.5,902.8 840.9,912.9 					"/>
				</g>
				<g>
					<polygon class="st12" points="842.8,912.2 839.3,901.7 843.7,911.8 					"/>
				</g>
				<g>
					<polygon class="st12" points="841.6,920.1 838.1,909.7 842.5,919.8 					"/>
				</g>
				<g>
					<polygon class="st12" points="844.4,919.1 840.9,908.6 845.3,918.7 					"/>
				</g>
			</g>
			<g>
				<g>
					<polygon class="st12" points="846.5,910.7 843,900.3 847.4,910.4 					"/>
				</g>
				<g>
					<polygon class="st12" points="849.3,909.6 845.8,899.2 850.2,909.3 					"/>
				</g>
				<g>
					<polygon class="st12" points="848.1,917.6 844.6,907.2 849,917.2 					"/>
				</g>
				<g>
					<polygon class="st12" points="850.9,916.5 847.4,906.1 851.8,916.2 					"/>
				</g>
				<g>
					<polygon class="st12" points="853,908.2 849.5,897.8 854,907.8 					"/>
				</g>
				<g>
					<polygon class="st12" points="855.8,907.1 852.3,896.7 856.8,906.8 					"/>
				</g>
				<g>
					<polygon class="st12" points="854.6,915.1 851.1,904.6 855.6,914.7 					"/>
				</g>
				<g>
					<polygon class="st12" points="857.4,914 853.9,903.6 858.4,913.6 					"/>
				</g>
				<g>
					<polygon class="st12" points="858.6,906 855.1,895.6 859.6,905.7 					"/>
				</g>
				<g>
					<polygon class="st12" points="861.4,905 857.9,894.5 862.4,904.6 					"/>
				</g>
				<g>
					<polygon class="st12" points="860.2,912.9 856.7,902.5 861.2,912.6 					"/>
				</g>
				<g>
					<polygon class="st12" points="863,911.8 859.5,901.4 864,911.5 					"/>
				</g>
			</g>
			<g>
				<g>
					<polygon class="st12" points="851.7,893.7 848.2,883.3 852.7,893.3 					"/>
				</g>
				<g>
					<polygon class="st12" points="854.5,892.6 851,882.2 855.4,892.3 					"/>
				</g>
				<g>
					<polygon class="st12" points="853.3,900.6 849.8,890.1 854.2,900.2 					"/>
				</g>
				<g>
					<polygon class="st12" points="856.1,899.5 852.6,889.1 857,899.1 					"/>
				</g>
				<g>
					<polygon class="st12" points="858.2,891.2 854.7,880.7 859.2,890.8 					"/>
				</g>
				<g>
					<polygon class="st12" points="861,890.1 857.5,879.7 862,889.7 					"/>
				</g>
				<g>
					<polygon class="st12" points="859.8,898.1 856.3,887.6 860.8,897.7 					"/>
				</g>
				<g>
					<polygon class="st12" points="862.6,897 859.1,886.5 863.6,896.6 					"/>
				</g>
				<g>
					<polygon class="st12" points="863.8,889 860.3,878.6 864.8,888.6 					"/>
				</g>
				<g>
					<polygon class="st12" points="866.6,887.9 863.1,877.5 867.6,887.6 					"/>
				</g>
				<g>
					<polygon class="st12" points="865.4,895.9 861.9,885.5 866.4,895.5 					"/>
				</g>
				<g>
					<polygon class="st12" points="868.2,894.8 864.7,884.4 869.2,894.5 					"/>
				</g>
			</g>
			<g>
				<g>
					<polygon class="st12" points="856.8,906.8 853.3,896.3 857.7,906.4 					"/>
				</g>
				<g>
					<polygon class="st12" points="859.6,905.7 856.1,895.2 860.5,905.3 					"/>
				</g>
				<g>
					<polygon class="st12" points="858.4,913.6 854.9,903.2 859.3,913.3 					"/>
				</g>
				<g>
					<polygon class="st12" points="861.2,912.6 857.7,902.1 862.1,912.2 					"/>
				</g>
			</g>
			<path class="st9" d="M861.5,980c0.8,2.1-0.2,4.4-2.3,5.2l0,0c-2.1,0.8-4.4-0.2-5.2-2.3l-9.4-24.3c-0.8-2.1,0.2-4.4,2.3-5.2l0,0
				c2.1-0.8,4.4,0.2,5.2,2.3L861.5,980z"/>
			<path class="st9" d="M877.3,973.9c0.8,2.1-0.2,4.4-2.3,5.2l0,0c-2.1,0.8-4.4-0.2-5.2-2.3l-9.4-24.3c-0.8-2.1,0.2-4.4,2.3-5.2l0,0
				c2.1-0.8,4.4,0.2,5.2,2.3L877.3,973.9z"/>
			
				<ellipse transform="matrix(0.9328 -0.3605 0.3605 0.9328 -275.3184 358.4482)" class="st13" cx="823.3" cy="917.3" rx="7.5" ry="7.5"/>
			
				<ellipse transform="matrix(0.9328 -0.3605 0.3605 0.9328 -268.1909 369.992)" class="st13" cx="857.8" cy="904" rx="7.5" ry="7.5"/>
			<g>
				<g>
					<polygon class="st12" points="805.1,911.7 801.6,901.3 806,911.4 					"/>
				</g>
				<g>
					<polygon class="st12" points="806.7,918.6 803.2,908.2 807.6,918.2 					"/>
				</g>
				<g>
					<polygon class="st12" points="808.8,910.3 805.3,899.8 809.7,909.9 					"/>
				</g>
				<g>
					<polygon class="st12" points="811.6,909.2 808.1,898.8 812.5,908.8 					"/>
				</g>
				<g>
					<polygon class="st12" points="810.4,917.2 806.9,906.7 811.3,916.8 					"/>
				</g>
				<g>
					<polygon class="st12" points="813.2,916.1 809.7,905.6 814.1,915.7 					"/>
				</g>
				<g>
					<polygon class="st12" points="814.4,908.1 810.9,897.7 815.3,907.8 					"/>
				</g>
				<g>
					<polygon class="st12" points="817.2,907 813.7,896.6 818.1,906.7 					"/>
				</g>
				<g>
					<polygon class="st12" points="816,915 812.5,904.6 816.9,914.6 					"/>
				</g>
				<g>
					<polygon class="st12" points="818.8,913.9 815.3,903.5 819.7,913.6 					"/>
				</g>
			</g>
			<g>
				<g>
					<polygon class="st12" points="810.1,924.8 806.6,914.3 811.1,924.4 					"/>
				</g>
				<g>
					<polygon class="st12" points="811.7,931.7 808.2,921.2 812.6,931.3 					"/>
				</g>
				<g>
					<polygon class="st12" points="813.9,923.3 810.4,912.9 814.8,923 					"/>
				</g>
				<g>
					<polygon class="st12" points="816.7,922.3 813.2,911.8 817.6,921.9 					"/>
				</g>
				<g>
					<polygon class="st12" points="815.4,930.2 811.9,919.8 816.4,929.9 					"/>
				</g>
				<g>
					<polygon class="st12" points="818.2,929.1 814.7,918.7 819.2,928.8 					"/>
				</g>
				<g>
					<polygon class="st12" points="819.5,921.2 816,910.7 820.4,920.8 					"/>
				</g>
				<g>
					<polygon class="st12" points="822.3,920.1 818.8,909.7 823.2,919.7 					"/>
				</g>
				<g>
					<polygon class="st12" points="821,928.1 817.5,917.6 822,927.7 					"/>
				</g>
				<g>
					<polygon class="st12" points="823.8,927 820.3,916.5 824.8,926.6 					"/>
				</g>
			</g>
			<g>
				<polygon class="st12" points="863.3,904.2 859.8,893.8 864.2,903.9 				"/>
			</g>
			<g>
				<polygon class="st12" points="866.1,903.1 862.6,892.7 867,902.8 				"/>
			</g>
			<g>
				<polygon class="st12" points="864.9,911.1 861.4,900.7 865.8,910.8 				"/>
			</g>
			<g>
				<polygon class="st12" points="867.7,910 864.2,899.6 868.6,909.7 				"/>
			</g>
			<g>
				<polygon class="st12" points="868.9,902.1 865.4,891.6 869.8,901.7 				"/>
			</g>
			<g>
				<polygon class="st12" points="871.7,901 868.2,890.5 872.6,900.6 				"/>
			</g>
			<g>
				<polygon class="st12" points="870.5,909 867,898.5 871.4,908.6 				"/>
			</g>
			<g>
				<polygon class="st12" points="873.3,907.9 869.8,897.4 874.2,907.5 				"/>
			</g>
		</g>
		
			<ellipse transform="matrix(0.9328 -0.3605 0.3605 0.9328 -271.6524 357.9679)" class="st14" cx="823.9" cy="907.3" rx="4.6" ry="4.6"/>
		<polyline class="st15" points="856.1,889.7 847.5,898.2 861.9,897.3 		"/>
		<path class="st16" d="M830.6,908.3l15.9-6.1c0,0,6.7,10.5-2.3,14.3C831,922.1,830.6,908.3,830.6,908.3z"/>
		
			<ellipse transform="matrix(0.9328 -0.3605 0.3605 0.9328 -271.2665 357.2751)" class="st5" cx="822.2" cy="905.9" rx="1.4" ry="0.8"/>
	</g>
</g>
<g id="roombot" class="st0">
	<g class="st3">
		<g>
			<circle class="st17" cx="1120.7" cy="941" r="10"/>
		</g>
		<g>
			<circle class="st17" cx="1047.7" cy="961" r="10"/>
		</g>
		<g>
			<circle class="st17" cx="942.7" cy="944" r="10"/>
		</g>
		<g>
			<path class="st18" d="M1151.6,874c0-33.1-55.5-46-124.3-46c-68.8,0-124.3,10.5-124.3,49c0,2.5,0,23.5,0,26
				c0,33.1,55.5,60,124.3,60c68.8,0,124.4-26.8,124.4-60C1151.7,900.5,1151.6,876.6,1151.6,874z"/>
		</g>
		<g>
			<ellipse class="st19" cx="1027.8" cy="871.5" rx="121.2" ry="41"/>
		</g>
		<g>
			<path class="st19" d="M1020.7,956.4c-58.4,0-91.3-20.8-92.7-21.7c-5.2-3.4-9-10.4-9-16.6v-16l10.4,4.2
				c30,12.2,63.4,18.3,99.4,18.3c36.4,0,62-6.5,62.3-6.6c1.1-0.3,2.3-0.4,3.5-0.4c6.7,0,12.3,4.8,13.4,11.4l2.1,12.3l-6.4,1.9
				C1075.3,952,1047.4,956.4,1020.7,956.4z"/>
		</g>
		<g>
			<path class="st20" d="M929,918.1v4.7c0,3.6,2.7,8.3,5.8,10.2c0,0,62.6,40.4,169.4,7.8l-0.9-5.8c-0.6-3.6-4.2-5.8-7.7-4.9
				C1095.6,930.2,1012,951.7,929,918.1z"/>
		</g>
		<g>
			<ellipse class="st17" cx="951" cy="884" rx="11" ry="7"/>
		</g>
		<g>
			<ellipse class="st17" cx="1060" cy="898" rx="11" ry="7"/>
		</g>
		<g>
			<ellipse class="st21" cx="951.9" cy="882.8" rx="7.5" ry="4.8"/>
		</g>
		<g>
			<ellipse class="st21" cx="1059.9" cy="895.8" rx="7.5" ry="4.8"/>
		</g>
		<g>
			<ellipse class="st5" cx="947.1" cy="880.4" rx="2.7" ry="0.6"/>
		</g>
		<g>
			<ellipse class="st5" cx="1056.2" cy="895.1" rx="3.8" ry="0.9"/>
		</g>
		<g>
			<path class="st18" d="M976.5,880.2c-13.3,0-23.7-6-23.7-13.8c0-1.4,1.1-2.5,2.5-2.5s2.5,1.1,2.5,2.5c0,4.1,7.7,8.8,18.7,8.8
				c1.4,0,2.5,1.1,2.5,2.5S977.9,880.2,976.5,880.2z"/>
		</g>
		<g>
			<path class="st18" d="M1041.2,890.4c-3.9,0-8-0.3-12-1c-1.4-0.2-2.3-1.5-2.1-2.9c0.2-1.4,1.5-2.3,2.9-2.1
				c16.4,2.7,27.8-0.7,28.3-4.3c0.2-1.4,1.5-2.3,2.9-2.1c1.4,0.2,2.3,1.5,2.1,2.9C1062.2,887.6,1052.4,890.4,1041.2,890.4z"/>
		</g>
		<g>
			<path class="st6" d="M991.1,921.5c-2.1-10.9,2.6-18.1,35.4-17.4c32,0.7,64,12.7,80.8-0.5c16.8-13.2-22.1,23.7-54.2,28.6
				C1021,937.2,993.2,932.4,991.1,921.5z"/>
		</g>
		<g>
			<path class="st6" d="M994.7,916.7c1.3-9.6-3-16.6-31-19.3c-27.3-2.6-53.9,5-68.9-8.6s19.9,23.6,47.5,31.3
				S993.4,926.3,994.7,916.7z"/>
		</g>
	</g>
</g>
<g id="massager" class="st0">
	<g class="st3">
		
			<ellipse transform="matrix(0.9508 -0.3099 0.3099 0.9508 -229.3495 504.4991)" class="st22" cx="1473.3" cy="974.2" rx="19.2" ry="15.3"/>
		<g>
			<path class="st5" d="M1319.1,995.4l152-36.6c0,0,19.6,8.2,13.6,23.4c-6.3,16.2-153.9,75.7-153.9,75.7L1319.1,995.4z"/>
			
				<ellipse transform="matrix(0.9829 -0.184 0.184 0.9829 -166.3268 261.3394)" class="st23" cx="1324.7" cy="1026.7" rx="27.8" ry="31.8"/>
			
				<ellipse transform="matrix(0.9829 -0.184 0.184 0.9829 -167.0692 260.0134)" class="st22" cx="1317.2" cy="1030" rx="18.8" ry="24.7"/>
			
				<ellipse transform="matrix(0.9829 -0.184 0.184 0.9829 -167.1126 259.1129)" class="st6" cx="1312.3" cy="1029.8" rx="14" ry="19.9"/>
			<path class="st24" d="M1320.4,1029.7c2.1,6.3-1.4,13.1-7.7,15.1l-13.3,4.4c-6.3,2.1-13.1-1.4-15.1-7.7l-1.9-5.7
				c-2.1-6.3,1.4-13.1,7.7-15.1l13.3-4.4c6.3-2.1,13.1,1.4,15.1,7.7L1320.4,1029.7z"/>
			<path class="st25" d="M1299.9,1037.8c5.1,15.6-3.4,32.4-19,37.5l-21.5,7c-15.6,5.1-32.4-3.4-37.5-19l-2.4-7.2
				c-5.1-15.6,3.4-32.4,19-37.5l21.5-7c15.6-5.1,32.4,3.4,37.5,19L1299.9,1037.8z"/>
			<ellipse class="st26" cx="1246.1" cy="1051" rx="31.9" ry="32.8"/>
		</g>
		
			<ellipse transform="matrix(0.9794 -0.2019 0.2019 0.9794 -171.1413 306.7807)" class="st22" cx="1418.2" cy="992.3" rx="5.6" ry="6.6"/>
		
			<ellipse transform="matrix(0.9794 -0.2019 0.2019 0.9794 -172.5226 303.9506)" class="st22" cx="1403.6" cy="997.6" rx="6.2" ry="7.3"/>
		
			<ellipse transform="matrix(0.9794 -0.2019 0.2019 0.9794 -170.0428 309.205)" class="st22" cx="1430.6" cy="988.1" rx="4.9" ry="5.8"/>
		
			<ellipse transform="matrix(0.9794 -0.2019 0.2019 0.9794 -169.0834 311.3783)" class="st22" cx="1441.7" cy="984.5" rx="3.9" ry="4.6"/>
		<path class="st24" d="M1228.3,1038.5c0,0-2.5-2.4-5-4.7c-0.6-0.6-1.3-1.1-1.9-1.7c-0.6-0.5-1.1-1.1-1.5-1.5
			c-0.1-0.1-0.3-0.2-0.2-0.2c0,0,0.1,0,0.1,0c-0.1,0-0.1,0-0.1,0l-0.1,0c-0.1,0-0.1,0-0.2,0c-0.3,0-0.6-0.1-0.8-0.1
			c-0.4-0.1-0.6-0.2-0.6-0.2l0-0.1c0,0,0.2,0,0.6,0c0.2-0.1,0.3,0,0.6-0.1c0.1,0,0.1,0,0.2-0.1l0.1,0c0,0,0.1,0,0,0
			c0.1,0,0.1,0,0.2,0c0.3,0.1,0.4,0.2,0.6,0.3c0.6,0.4,1.2,0.8,1.8,1.4c0.6,0.6,1.1,1.2,1.7,1.9
			C1226.2,1035.8,1228.4,1038.4,1228.3,1038.5L1228.3,1038.5z"/>
		<path class="st24" d="M1247.1,1050.9c0,0,4.7-5.3,9.7-10.3c1.2-1.3,2.4-2.6,3.6-3.7c0.6-0.6,1.2-1.1,1.8-1.6
			c0.3-0.2,0.6-0.5,0.9-0.7c0.3-0.2,0.5-0.4,1-0.6c0.7-0.3,1.3-0.3,1.7-0.6c0.5-0.2,0.9-0.3,1.3-0.5c0.7-0.3,1.1-0.4,1.1-0.4l0,0.1
			c0,0-0.4,0.3-1,0.7c-0.3,0.2-0.8,0.4-1.2,0.7c-0.5,0.3-1.1,0.5-1.6,0.7c-0.2,0.1-0.5,0.4-0.7,0.6c-0.3,0.2-0.5,0.5-0.8,0.7
			c-0.5,0.5-1.1,1.1-1.7,1.6c-1.2,1.1-2.5,2.3-3.8,3.5C1252.3,1046,1247.2,1050.9,1247.1,1050.9L1247.1,1050.9z"/>
		<path class="st27" d="M1232.5,1057h15.1C1247.6,1057,1236.2,1092.8,1232.5,1057z"/>
		<path class="st28" d="M1239.7,1063.4l2.4-3.3c0,0-2.4-1.2-4.3,0.4c-4.3,3.6-1.6,9.8,1.3,8c2.9-1.8,7.4-8.6,3.6-7.8
			C1241.9,1060.9,1239.7,1063.4,1239.7,1063.4z"/>
		<path class="st29" d="M1257.7,1057c0,0,0-0.1,0-0.3c0-0.1,0-0.2,0.1-0.4c0.1-0.1,0.1-0.3,0.3-0.4c0.4-0.6,1.3-1.1,2.2-1.5
			c0.4-0.2,0.9-0.4,1.3-0.4c0.4-0.1,0.9-0.1,1.2,0c0.4,0,0.7,0.1,0.9,0.2c0.2,0.1,0.4,0.1,0.4,0.1v0.1c0,0-0.5,0.2-1.2,0.4
			c-0.3,0.1-0.7,0.2-1.1,0.3c-0.4,0.1-0.9,0.1-1.3,0.2c-0.9,0.2-1.7,0.5-2.2,0.9c-0.1,0.1-0.2,0.2-0.3,0.3c-0.1,0.1-0.1,0.2-0.2,0.3
			c-0.1,0.2-0.1,0.3-0.1,0.3L1257.7,1057z"/>
		<path class="st29" d="M1228.3,1049.6c0,0,0-0.1-0.1-0.3c-0.1-0.1-0.1-0.2-0.2-0.3c-0.1-0.1-0.2-0.2-0.3-0.3
			c-0.5-0.4-1.3-0.8-2.1-0.9c-0.4-0.1-0.9-0.1-1.3-0.2c-0.4-0.1-0.8-0.2-1.2-0.3c-0.6-0.2-1.2-0.4-1.2-0.4v-0.1c0,0,0.2-0.1,0.4-0.1
			c0.2-0.1,0.5-0.1,0.9-0.2c0.4,0,0.8,0,1.2,0c0.4,0.1,0.9,0.3,1.3,0.4c0.9,0.4,1.7,0.9,2.2,1.5c0.1,0.2,0.2,0.3,0.3,0.4
			c0.1,0.1,0.1,0.3,0.1,0.4C1228.4,1049.5,1228.4,1049.6,1228.3,1049.6L1228.3,1049.6z"/>
	</g>
</g>
<g id="toaster" class="st0">
	<g class="st3">
		<g>
			<path class="st30" d="M1215.4,904.4c0.1-8.4-2.4-18.1,3.4-22.8c3.7-3,34.2-37.6,54.2-37.6c4.1,0,8.4,0.6,12.7,1.9l45.6,13.3
				c23.5,6.9,41.7,30.5,41.3,53.8l-0.5,33.2c-0.1,9.7-3.5,18-9.2,24c-2.1,2.2-14.3,21.9-22.7,25.7c-7.6,3.5-6.2,5.3-16.9,2.7
				l-79.8-28.8c-23.9-5.8-29.2-12.3-28.8-32.2L1215.4,904.4z"/>
		</g>
		<g>
			<path class="st31" d="M1329.5,1000.9L1217,960.2c-1-4.3-8.1-11.1-8-15.5l0.5-36.5c0.3-22.2,14.5-37.7,34.6-37.7
				c4.1,0,8.4,0.7,12.7,2.1l45.6,14.6c23.5,7.5,41.7,33.5,41.3,59.1l-0.5,36.5C1343.1,990.8,1332.9,995,1329.5,1000.9z"/>
		</g>
		<g>
			<path class="st32" d="M1323.4,998.7l-99.5-36c-1.8-5.3-7-12.4-6.9-17.9l0.5-36.5c0.3-22,16.7-34.6,36.8-28.1l45.6,14.6
				c20,6.4,36.1,29.4,35.8,51.4l-0.5,36.5C1335.1,990,1326.6,993.8,1323.4,998.7z"/>
		</g>
		<g>
			<path class="st21" d="M1330.7,868.3c3.7,1.2,4.9,3.3,2.7,4.7c-2.2,1.4-7,1.5-10.6,0.3l-48.2-15.7c-3.7-1.2-4.6-3.3-2.1-4.7
				s7.5-1.5,11.2-0.3L1330.7,868.3z"/>
		</g>
		<g>
			<path class="st21" d="M1319.7,879.1c3.7,1.3,4.9,3.5,2.7,4.9c-2.2,1.4-7,1.6-10.6,0.3l-48.2-16.3c-3.7-1.2-4.6-3.4-2.1-4.8
				s7.5-1.6,11.2-0.3L1319.7,879.1z"/>
		</g>
		<g>
			<g>
				<path class="st33" d="M1323.5,861.5c0.9-1,1.4-2.3,1.4-3.9l0-3.8c0-4.2-3.3-8.5-7.8-9.6l-11.6-2.9c-1.8-0.5-3.4-0.3-4.8,0.2
					c-1.3-1.2-3-2.2-4.8-2.7l-11.6-2.9c-3-0.8-5.5,0.1-7,1.9c0.9-3.4,4.3-5.2,8.4-4.1l12.5,3.2c1.9,0.5,3.7,1.5,5.1,2.9
					c1.5-0.6,3.2-0.7,5.2-0.3l12.5,3.2c4.9,1.2,9.3,6.1,9.2,10.6l0,4.1c0,1.7-0.6,3.1-1.5,4.2c0.9,1.5,1.5,3.2,1.4,4.8l0,7.6
					c-1.7,0.2-3.6,0.2-5.5-0.1l0-7.9C1324.8,864.4,1324.3,862.9,1323.5,861.5z"/>
			</g>
			<g>
				<path class="st34" d="M1278.1,850.8c-1.3-1.7-1.9-3.7-1.9-5.6l0-3.8c0-1.4,0.4-2.7,1.2-3.6c1.4-1.8,4-2.6,7-1.9l11.6,2.9
					c1.8,0.5,3.4,1.4,4.8,2.7c1.3-0.6,3-0.7,4.8-0.2l11.6,2.9c4.5,1.1,7.8,5.4,7.8,9.6l0,3.8c0,1.6-0.5,2.9-1.4,3.9
					c0.8,1.4,1.3,2.9,1.3,4.4l0,7.9c-0.7-0.1-1.4-0.3-2.1-0.5l-45.6-14.8l0-4.8C1277.1,852.6,1277.6,851.7,1278.1,850.8z"/>
			</g>
		</g>
		<g>
			<g>
				<path class="st33" d="M1311.5,871.5c0.9-1,1.4-2.3,1.4-3.9l0-3.8c0-4.2-3.3-8.5-7.8-9.6l-11.6-2.9c-1.8-0.5-3.4-0.3-4.8,0.2
					c-1.3-1.2-3-2.2-4.8-2.7l-11.6-2.9c-3-0.8-5.5,0.1-7,1.9c0.9-3.4,4.3-5.2,8.4-4.1l12.5,3.2c1.9,0.5,3.7,1.5,5.1,2.9
					c1.5-0.6,3.2-0.7,5.2-0.3l12.5,3.2c4.9,1.2,9.3,6.1,9.2,10.6l0,4.1c0,1.7-0.6,3.1-1.5,4.2c0.9,1.5,1.5,3.2,1.4,4.8l0,7.6
					c-1.7,0.2-3.6,0.2-5.5-0.1l0-7.9C1312.8,874.4,1312.3,872.9,1311.5,871.5z"/>
			</g>
			<g>
				<path class="st34" d="M1266.1,860.8c-1.3-1.7-1.9-3.7-1.9-5.6l0-3.8c0-1.4,0.4-2.7,1.2-3.6c1.4-1.8,4-2.6,7-1.9l11.6,2.9
					c1.8,0.5,3.4,1.4,4.8,2.7c1.3-0.6,3-0.7,4.8-0.2l11.6,2.9c4.5,1.1,7.8,5.4,7.8,9.6l0,3.8c0,1.6-0.5,2.9-1.4,3.9
					c0.8,1.4,1.3,2.9,1.3,4.4l0,7.9c-0.7-0.1-1.4-0.3-2.1-0.5l-45.6-14.8l0-4.8C1265.1,862.6,1265.6,861.7,1266.1,860.8z"/>
			</g>
		</g>
		<g>
			<path class="st17" d="M1359.5,944.5c-1.4,0-2.5-1.1-2.5-2.5v-20c0-0.2,0-17.9-10.6-26.5c-1.1-0.9-1.2-2.4-0.4-3.5
				c0.9-1.1,2.4-1.2,3.5-0.4c12.5,10.1,12.4,29.6,12.4,30.4v20C1362,943.4,1360.9,944.5,1359.5,944.5z"/>
		</g>
		<g>
			<g>
				<path class="st18" d="M1379,914.1c0,0.5-0.4,0.9-0.9,0.9h-20.2c-0.5,0-0.9-0.4-0.9-0.9v-0.2c0-0.5,0.4-0.9,0.9-0.9h20.2
					c0.5,0,0.9,0.4,0.9,0.9V914.1z"/>
				<path class="st20" d="M1378.6,915h-20.2c-0.8,0-1.4-0.6-1.4-1.4v-0.2c0-0.8,0.6-1.4,1.4-1.4h20.2c0.8,0,1.4,0.6,1.4,1.4v0.2
					C1380,914.4,1379.4,915,1378.6,915z M1358.4,913c-0.2,0-0.4,0.2-0.4,0.4v0.2c0,0.2,0.2,0.4,0.4,0.4h20.2c0.2,0,0.4-0.2,0.4-0.4
					v-0.2c0-0.2-0.2-0.4-0.4-0.4H1358.4z"/>
			</g>
			<g>
				<path class="st35" d="M1401,913.5c0,3-2.5,5.5-5.5,5.5h-16c-3,0-5.5-2.5-5.5-5.5l0,0c0-3,2.5-5.5,5.5-5.5h16
					C1398.5,908,1401,910.5,1401,913.5L1401,913.5z"/>
			</g>
		</g>
		<g>
			<ellipse class="st36" cx="1300.4" cy="927.3" rx="7.5" ry="8.4"/>
		</g>
		<g>
			<path class="st35" d="M1374,950c0-4.4-3.6-8-8-8h-5c-4.4,0-8,3.6-8,8l0,0c0,4.4,3.6,8,8,8h5C1370.4,958,1374,954.4,1374,950
				L1374,950z"/>
		</g>
		<g>
			<circle class="st37" cx="1299.4" cy="929.4" r="7.5"/>
		</g>
		<g>
			<ellipse class="st36" cx="1257.4" cy="913.1" rx="7.5" ry="8.1"/>
		</g>
		<g>
			<circle class="st37" cx="1256.4" cy="915.4" r="7.5"/>
		</g>
		<g>
			<circle class="st6" cx="1257.1" cy="914" r="5"/>
		</g>
		<g>
			<circle class="st6" cx="1298.9" cy="928" r="5"/>
		</g>
		<g>
			<path class="st21" d="M1290.3,946.2l-41-12.7C1249.3,933.4,1263.1,977,1290.3,946.2z"/>
		</g>
		<g>
			<path class="st37" d="M1247.8,904.9c0,0-1.1,7.1,3.4,6.4c0.2,0,0.4-0.1,0.6-0.1C1257.1,909.6,1239.8,919.8,1247.8,904.9z"/>
		</g>
		<g>
			<path class="st37" d="M1249.4,915.3c6.3-0.9-13.7,7.8-5.7-7.1c0,0-0.5,7.4,5,7.2"/>
		</g>
		<g>
			<path class="st37" d="M1311.4,927.3c0,0-2.2,5.6-5.8,0.6c-0.2-0.2-0.3-0.4-0.5-0.7C1301.2,921.2,1311.6,944.7,1311.4,927.3z"/>
		</g>
		<g>
			<path class="st37" d="M1305.4,932.4c-5-6.8,8.4,18.6,8.1,1.2c0,0-2.8,5.2-7.5-0.4"/>
		</g>
		<g>
			<path class="st5" d="M1243.3,927.4c0,0,2.2,6.8,6.4,14.2l3.1,0l-1.6-4.5l4.9,1.5l1.7,8.1l7.8,2.4l1.5-6.4l0.4,7.1l8.9,2.8
				l3.1-5.8l3.8-0.4l-3.2,4.8l6.5,1.9c2.6-2.1,10.3-4.8,13.2-8L1243.3,927.4z"/>
		</g>
		<g>
			<g>
				<path class="st38" d="M1244.6,936C1244.6,936,1244.6,936,1244.6,936c-0.3,0-0.6,0.2-0.9,0.2c-13.2-0.5-23.5-11.5-23-24.7
					c0.5-13.2,11.5-23.4,24.8-22.9c6.4,0.2,12.3,3,16.6,7.7c4.3,4.7,6.6,10.6,6.4,16.9C1268,926.1,1257.5,936,1244.6,936z
					 M1244.5,891.7c-11.3,0-20.5,8.8-20.9,20.1c-0.2,5.6,1.8,10.9,5.6,15c3.8,4.1,9,6.5,14.5,6.7c0.3,0,0.5,0,0.8,0
					c11.3,0,20.5-8.8,20.9-20.1c0.2-5.6-1.8-10.9-5.6-15s-9-6.5-14.5-6.7C1245.1,891.7,1244.8,891.7,1244.5,891.7z"/>
			</g>
			<g>
				<path class="st38" d="M1295.8,959C1295.8,959,1295.8,959,1295.8,959c-0.3,0-0.6,0.1-0.9,0.1c-6.4-0.2-12.3-2.9-16.6-7.6
					c-4.3-4.7-6.6-10.8-6.4-17.1c0.5-13.2,11.5-23.5,24.8-23c13.2,0.5,23.5,11.5,23,24.7C1319.2,949,1308.7,959,1295.8,959z
					 M1295.8,914.4c-11.3,0-20.5,8.8-20.9,20.1c-0.2,5.6,1.8,10.9,5.6,15c3.8,4.1,9,6.5,14.5,6.7c0.3,0,0.5,0,0.8,0
					c11.3,0,20.5-8.8,20.9-20.1c0.4-11.5-8.6-21.3-20.1-21.7C1296.3,914.4,1296,914.4,1295.8,914.4z"/>
			</g>
			<g>
				<path class="st38" d="M1277,922.6c-2.1-6.5-4.3-7.8-5.4-8c-1.9-0.3-3.6,1.9-3.6,1.9l-2.4-1.8c0.1-0.2,2.8-3.7,6.5-3
					c3.2,0.5,5.7,3.8,7.7,10.1L1277,922.6z"/>
			</g>
		</g>
		<g>
			<path class="st5" d="M1252.7,943.6l1.4-1.5l2.3,3.3l-0.2,1.8l3.1,1.4l2.8,0.7l1,2.1l2.5-2.5l2.4,2.5l-0.5,1.5h3.5h3v2l4-2.6
				l2,0.6h2v1.5C1282,954.5,1264.1,965.1,1252.7,943.6z"/>
		</g>
	</g>
</g>
<g id="coffee" class="st0">
	<g class="st3">
		<path class="st39" d="M1547.5,865.1c-43.2,0-78.2,39.8-78.2,88.9c0,18.3,4.9,35.3,13.2,49.4c19.1,7.4,41.2,11.6,64.6,11.6
			c23.9,0,46.3-4.4,65.6-12c8.2-14,12.9-30.9,12.9-49C1625.7,904.9,1590.7,865.1,1547.5,865.1z"/>
		<path class="st40" d="M1591,867c0,6.7-4.7,12-10.5,12h-66c-5.8,0-10.5-5.3-10.5-12l0,0c0-6.7,4.7-12,10.5-12h66
			C1586.3,855,1591,860.3,1591,867L1591,867z"/>
		<rect x="1501" y="871" width="94" height="8"/>
		<polygon class="st6" points="1583,857 1512,857 1516,850 1579,850 		"/>
		<polygon class="st40" points="1504,822.6 1515,851 1578,851 1582,842 		"/>
		<path d="M1582.5,841.6c0,5.1-17.7,5.1-39.5,0c-21.8-5.1-39.5-13.4-39.5-18.5c0-5.1,17.7-5.1,39.5,0
			C1564.8,828.2,1582.5,836.5,1582.5,841.6z"/>
		<path class="st41" d="M1556.3,926.2c-29.8,0-57.6-2.6-80.7-7c-4,10.7-6.2,22.4-6.2,34.8c0,18.3,4.9,35.3,13.2,49.4
			c19.1,7.4,41.2,11.6,64.6,11.6c23.9,0,46.3-4.4,65.6-12c8.2-14,12.9-30.9,12.9-49c0-11.3-2.8-24.8-6.2-34.7
			C1600.1,922,1579.3,926.2,1556.3,926.2z"/>
		<path class="st42" d="M1619.5,920.5c0,7.3-32.2,13.3-72,13.3s-72-7.2-72-14.6s32.2-12,72-12S1619.5,913.1,1619.5,920.5z"/>
		<path class="st43" d="M1568.1,868.2c11.4,20.9,18.4,48.1,18.4,77.8c0,24.9-4.9,48.1-13.2,67.2c14.1-1.9,27.3-5.4,39.4-10.2
			c8.2-14,12.9-30.9,12.9-49C1625.7,913,1601.3,878.5,1568.1,868.2z"/>
		<path class="st44" d="M1487.5,946c0-24,6-46.5,16.5-65.9c-20.9,16-34.7,43.1-34.7,73.9c0,18.3,4.9,35.3,13.2,49.4
			c6.5,2.5,13.3,4.6,20.4,6.4C1493.1,990.8,1487.5,969.1,1487.5,946z"/>
	</g>
</g>
<g id="speech2" class="st0">
	<path class="st7" d="M1293,666c0,55.4-53.6,100.5-120.5,102c-1.1,0-5.4,0-5.4,0l-66.1,24.3l21.1-29.7c0,0-0.2-2.2-1.3-2.6
		c-44.5-15.5-75.7-51.7-75.7-94c0-56.3,55.5-102,123.9-102C1237.5,564,1293,609.7,1293,666z"/>
</g>
<g id="speech1" class="st0">
	<path class="st7" d="M464,799.5c0,6.6,4.9,12.5,11.5,12.5h120.8l45.3,38.2L627,812h46.5c6.6,0,12.5-5.9,12.5-12.5v-102
		c0-6.6-5.9-11.5-12.5-11.5h-198c-6.6,0-11.5,4.9-11.5,11.5V799.5z"/>
</g>
</svg>
